<?xml version="1.0" standalone="no"?>
<!DOCTYPE svg PUBLIC "-//W3C//DTD SVG 20010904//EN"
 "http://www.w3.org/TR/2001/REC-SVG-20010904/DTD/svg10.dtd">
<svg version="1.0" xmlns="http://www.w3.org/2000/svg"
 width="232.000000pt" height="232.000000pt" viewBox="0 0 232.000000 232.000000"
 preserveAspectRatio="xMidYMid meet">
<metadata>
Created by potrace 1.14, written by Peter Selinger 2001-2017
</metadata>
<g transform="translate(0.000000,232.000000) scale(0.100000,-0.100000)"
fill="#000000" stroke="none">
<path d="M699 2316 c-2 -2 -22 -7 -44 -10 -38 -6 -92 -20 -125 -33 -8 -4 -17
-7 -20 -7 -3 -1 -30 -13 -62 -28 -97 -45 -199 -128 -279 -228 -37 -47 -59 -84
-119 -210 -4 -8 -16 -47 -26 -85 -17 -64 -19 -110 -19 -540 0 -259 3 -491 8
-516 13 -81 78 -250 107 -279 3 -3 20 -27 39 -55 87 -128 237 -233 411 -291
l85 -29 495 0 c452 0 501 2 565 19 39 10 76 23 83 28 6 6 12 8 12 4 0 -3 35
12 77 34 157 83 273 202 350 361 78 160 78 164 78 694 0 259 -3 491 -8 516
-13 83 -90 279 -108 279 -5 0 -9 5 -9 11 0 7 -17 33 -37 58 -125 155 -295 259
-488 296 -53 11 -180 14 -516 14 -245 0 -448 -1 -450 -3z"/>
</g>
</svg>
